<?xml version="1.0" encoding="iso-8859-1"?>
<!-- Generator: Adobe Illustrator 19.0.0, SVG Export Plug-In . SVG Version: 6.00 Build 0)  -->
<svg version="1.1" id="Capa_1" xmlns="http://www.w3.org/2000/svg" xmlns:xlink="http://www.w3.org/1999/xlink" x="0px" y="0px"
	 viewBox="0 0 512 512" style="enable-background:new 0 0 512 512;" xml:space="preserve">
<g>
	<g>
		<path d="M496.822,224.464C451.991,188.84,361.088,129.079,256,129.079S60.009,188.846,15.144,224.493
			C5.521,232.194,0,243.674,0,256.003s5.521,23.809,15.051,31.43c14.18,11.601,31.741,24.057,50.779,36.027
			c5.394,3.386,12.519,1.765,15.911-3.629c3.392-5.4,1.765-12.519-3.629-15.911c-18.242-11.469-34.995-23.347-48.546-34.429
			c-4.125-3.3-6.49-8.215-6.49-13.488s2.365-10.194,6.456-13.465C72.009,208.784,157.921,152.161,256,152.161
			s183.991,56.629,226.44,90.354c4.119,3.3,6.484,8.215,6.484,13.494c0,5.273-2.365,10.188-6.456,13.465
			C439.991,303.222,354.073,359.845,256,359.845c-6.369,0-11.538,5.169-11.538,11.538c0,6.369,5.169,11.538,11.538,11.538
			c105.083,0,195.991-59.755,240.851-95.419C506.479,279.8,512,268.32,512,255.997S506.479,232.188,496.822,224.464z"/>
	</g>
</g>
<g>
	<g>
		<path d="M256,129.085c-69.984,0-126.918,56.934-126.918,126.918S186.016,382.921,256,382.921c6.369,0,11.538-5.169,11.538-11.538
			c0-6.369-5.169-11.538-11.538-11.538c-57.257,0-103.842-46.585-103.842-103.842S198.743,152.161,256,152.161
			s103.842,46.585,103.842,103.842c0,6.369,5.169,11.538,11.538,11.538c6.369,0,11.538-5.169,11.538-11.538
			C382.918,186.019,325.984,129.085,256,129.085z"/>
	</g>
</g>
<g>
</g>
<g>
</g>
<g>
</g>
<g>
</g>
<g>
</g>
<g>
</g>
<g>
</g>
<g>
</g>
<g>
</g>
<g>
</g>
<g>
</g>
<g>
</g>
<g>
</g>
<g>
</g>
<g>
</g>
</svg>
